<?xml version="1.0" encoding="UTF-8"?>
<svg id="Layer_1" data-name="Layer 1" xmlns="http://www.w3.org/2000/svg" viewBox="0 0 300 36.7">
  <path d="m27.17,22.49H7.09v-4.98h25.89c-.68-2.11-2.87-4.08-6.72-4.08H7.47c-4.3,0-6.79,1.58-6.79,5.06v3.7c0,3.02,2.57,4.75,6.34,4.75h20.3v5.28H0c.68,2.87,2.87,4.38,6.79,4.38h20.45c4.3,0,6.42-1.66,6.42-5.21v-3.7c0-3.25-2.49-4.98-6.49-5.21h0Zm40.98-8.97h-24.75v23.17h7.02v-8.91h18.26c5.06,0,7.85-1.74,7.85-5.81v-2.57c-.08-3.77-3.25-5.89-8.38-5.89h0Zm2.26,7.41c0,1.66-.3,2.57-3.02,2.57h-16.98l.08-6.04h16.6c3.02,0,3.4.91,3.4,2.49v.98s-.08,0-.08,0Zm29.43,6.72h-14.94l-3.7,3.92h21.58l3.7,5.13h8.3l-17.89-24.15-4.23,5.21,7.17,9.89h.01Zm28.38-10.11h26.26c-.68-2.72-3.32-4.08-7.09-4.08h-19.62c-3.4,0-6.64,1.36-6.64,5.06v12.98c0,3.7,3.25,5.06,6.64,5.06h19.85c4.53,0,6.11-1.28,6.87-4.38h-26.26v-14.64h0Zm57.06,7.7v-3.92h-21.21v15.4h31.32v-4.38h-24.23v-7.09h14.12Zm-20.45-11.71h31.62v4.08h-31.62v-4.08Zm51.09,0h-11.02l12.98,9.51c1.89-1.28,4.08-2.64,6.04-3.77l-8-5.74h0Zm16,11.85c-1.89,1.28-3.77,2.72-5.58,4.08l9.81,7.17h11.09l-15.32-11.25h0Z"/>
  <path d="m300,0c-60.38,3.47-88.3,29.28-94.57,35.4l-1.28,1.21h11.17C245.51,6.34,288.91.98,300,0Z"/>
</svg>